<svg width="24" height="24" viewBox="0 0 24 24" fill="none" xmlns="http://www.w3.org/2000/svg">
<path d="M3.08194 13.945C2.55294 12.995 2.28894 12.519 2.28894 12C2.28894 11.481 2.55294 11.006 3.08194 10.056L4.42994 7.63L5.85594 5.249C6.41494 4.316 6.69394 3.849 7.14294 3.589C7.59294 3.33 8.13594 3.322 9.22294 3.304L11.9999 3.26L14.7749 3.304C15.8629 3.322 16.4059 3.33 16.8549 3.59C17.3039 3.85 17.5849 4.316 18.1429 5.249L19.5699 7.63L20.9199 10.056C21.4479 11.006 21.7119 11.481 21.7119 12C21.7119 12.519 21.4479 12.994 20.9189 13.944L19.5699 16.37L18.1439 18.751C17.5849 19.684 17.3059 20.151 16.8569 20.411C16.4069 20.67 15.8639 20.678 14.7769 20.696L11.9999 20.74L9.22494 20.696C8.13694 20.678 7.59394 20.67 7.14494 20.41C6.69594 20.15 6.41494 19.684 5.85694 18.751L4.42994 16.37L3.08194 13.945Z" stroke="white" stroke-width="2"/>
<path d="M12 15C13.6569 15 15 13.6569 15 12C15 10.3431 13.6569 9 12 9C10.3431 9 9 10.3431 9 12C9 13.6569 10.3431 15 12 15Z" stroke="white" stroke-width="2"/>
</svg>
