<svg width="50" height="50" viewBox="0 0 50 50" fill="none" xmlns="http://www.w3.org/2000/svg">
<circle cx="25" cy="25" r="25" fill="#D9D9D9"/>
<path d="M12.25 23.0521H37.75M32.0833 11.7188V17.3854M17.9167 11.7188V17.3854M32.0833 14.5521H17.9167C16.4138 14.5521 14.9724 15.1491 13.9097 16.2118C12.847 17.2745 12.25 18.7159 12.25 20.2187V32.6146C12.25 34.1175 12.847 35.5588 13.9097 36.6215C14.9724 37.6842 16.4138 38.2812 17.9167 38.2812H32.0833C33.5862 38.2812 35.0276 37.6842 36.0903 36.6215C37.153 35.5588 37.75 34.1175 37.75 32.6146V20.2187C37.75 18.7159 37.153 17.2745 36.0903 16.2118C35.0276 15.1491 33.5862 14.5521 32.0833 14.5521Z" stroke="black" stroke-width="1.5" stroke-linecap="round" stroke-linejoin="round"/>
</svg>
